<svg width="10" height="10" viewBox="0 0 10 10" fill="none" xmlns="http://www.w3.org/2000/svg">
<path d="M6.98957 1.99923L8.55554 3.5652C8.62151 3.63117 8.62151 3.73881 8.55554 3.80478L4.76388 7.59645L3.15276 7.77527C2.93749 7.79957 2.7552 7.61728 2.7795 7.40201L2.95832 5.79089L6.74999 1.99923C6.81596 1.93325 6.9236 1.93325 6.98957 1.99923ZM9.80207 1.60166L8.95485 0.754435C8.69096 0.490546 8.26214 0.490546 7.99651 0.754435L7.38193 1.36902C7.31596 1.43499 7.31596 1.54263 7.38193 1.6086L8.9479 3.17457C9.01388 3.24055 9.12152 3.24055 9.18749 3.17457L9.80207 2.55999C10.066 2.29437 10.066 1.86555 9.80207 1.60166ZM6.66665 6.5652V8.33256H1.1111V2.777H5.10068C5.15624 2.777 5.20832 2.75444 5.24825 2.71624L5.9427 2.0218C6.07464 1.88985 5.98089 1.66589 5.79513 1.66589H0.83332C0.373251 1.66589 -1.33514e-05 2.03916 -1.33514e-05 2.49923V8.61034C-1.33514e-05 9.07041 0.373251 9.44367 0.83332 9.44367H6.94443C7.4045 9.44367 7.77776 9.07041 7.77776 8.61034V5.87076C7.77776 5.68499 7.55381 5.59298 7.42186 5.72319L6.72742 6.41763C6.68922 6.45756 6.66665 6.50964 6.66665 6.5652Z" fill="#727682"/>
</svg>
